<svg width="1600" height="400" viewBox="0 0 1600 400" fill="none" xmlns="http://www.w3.org/2000/svg">
<path d="M447.678 112.539C421.702 94.9189 386.783 92.3181 358.392 104.932C337.375 113.905 319.1 132.436 303.109 149.471C291.231 162.215 279.482 175.024 267.669 187.768C254.811 201.553 242.019 215.792 228.573 228.991C210.168 247.457 187.911 261.892 161.282 254.024C132.433 246.092 116.508 215.272 121.273 186.858C126.168 155.583 157.04 136.532 187.846 143.229C200.378 145.635 218.13 161.76 234.317 172.488L264.079 139.523C252.07 127.039 234.578 114.685 225.897 109.353C209.189 99.5354 189.608 94.5938 170.289 96.3494H170.158C135.697 99.0802 105.151 122.423 89.4218 152.462C78.0652 174.179 75.3239 199.667 80.5454 223.595C92.3589 277.042 145.095 315.794 199.921 300.709C228.116 293.362 248.611 271.255 267.473 250.383C275.044 241.93 282.681 233.413 290.382 224.96C305.655 208.25 320.406 191.539 335.939 175.479C342.074 169.237 348.471 163.321 355.52 158.119C366.289 150.186 379.016 144.27 392.266 143.424C419.874 141.084 444.611 162.995 448.461 189.914C453.813 221.254 432.797 253.179 400.424 256.625C386.587 258.446 372.75 253.959 360.937 246.677C356.499 244.141 345.599 234.778 336.984 228.406L309.832 258.576C315.315 266.573 321.841 273.856 326.28 277.497C374.709 319.5 445.981 310.332 479.072 254.479C508.116 207.6 494.214 142.774 447.743 112.605L447.678 112.539Z" fill="url(#paint0_linear_dark)"/>
<path d="M607.254 250V149.676H622.391V236.97H667.85V250H607.254ZM793.187 199.838C793.187 210.55 791.228 219.759 787.309 227.466C783.39 235.141 778.018 241.052 771.193 245.199C764.4 249.314 756.676 251.372 748.022 251.372C739.335 251.372 731.579 249.314 724.754 245.199C717.961 241.052 712.605 235.125 708.686 227.417C704.767 219.71 702.808 210.517 702.808 199.838C702.808 189.126 704.767 179.933 708.686 172.259C712.605 164.552 717.961 158.641 724.754 154.526C731.579 150.378 739.335 148.305 748.022 148.305C756.676 148.305 764.4 150.378 771.193 154.526C778.018 158.641 783.39 164.552 787.309 172.259C791.228 179.933 793.187 189.126 793.187 199.838ZM778.198 199.838C778.198 191.674 776.875 184.799 774.23 179.215C771.617 173.598 768.025 169.352 763.453 166.479C758.913 163.572 753.77 162.119 748.022 162.119C742.242 162.119 737.082 163.572 732.543 166.479C728.003 169.352 724.411 173.598 721.766 179.215C719.153 184.799 717.847 191.674 717.847 199.838C717.847 208.002 719.153 214.893 721.766 220.51C724.411 226.095 728.003 230.34 732.543 233.247C737.082 236.121 742.242 237.558 748.022 237.558C753.77 237.558 758.913 236.121 763.453 233.247C768.025 230.34 771.617 226.095 774.23 220.51C776.875 214.893 778.198 208.002 778.198 199.838ZM924.036 199.838C924.036 210.55 922.077 219.759 918.158 227.466C914.239 235.141 908.867 241.052 902.041 245.199C895.248 249.314 887.525 251.372 878.871 251.372C870.184 251.372 862.428 249.314 855.602 245.199C848.81 241.052 843.454 235.125 839.535 227.417C835.616 219.71 833.656 210.517 833.656 199.838C833.656 189.126 835.616 179.933 839.535 172.259C843.454 164.552 848.81 158.641 855.602 154.526C862.428 150.378 870.184 148.305 878.871 148.305C887.525 148.305 895.248 150.378 902.041 154.526C908.867 158.641 914.239 164.552 918.158 172.259C922.077 179.933 924.036 189.126 924.036 199.838ZM909.046 199.838C909.046 191.674 907.724 184.799 905.078 179.215C902.466 173.598 898.873 169.352 894.301 166.479C889.762 163.572 884.618 162.119 878.871 162.119C873.09 162.119 867.93 163.572 863.391 166.479C858.852 169.352 855.259 173.598 852.614 179.215C850.002 184.799 848.695 191.674 848.695 199.838C848.695 208.002 850.002 214.893 852.614 220.51C855.259 226.095 858.852 230.34 863.391 233.247C867.93 236.121 873.09 237.558 878.871 237.558C884.618 237.558 889.762 236.121 894.301 233.247C898.873 230.34 902.466 226.095 905.078 220.51C907.724 214.893 909.046 208.002 909.046 199.838ZM967.738 250V149.676H1003.5C1011.3 149.676 1017.77 151.097 1022.9 153.938C1028.02 156.779 1031.86 160.665 1034.41 165.597C1036.96 170.495 1038.23 176.014 1038.23 182.154C1038.23 188.326 1036.94 193.878 1034.36 198.809C1031.81 203.708 1027.96 207.594 1022.8 210.468C1017.67 213.309 1011.22 214.73 1003.45 214.73H978.858V201.896H1002.08C1007.01 201.896 1011.01 201.046 1014.08 199.348C1017.15 197.617 1019.4 195.266 1020.84 192.294C1022.28 189.322 1022.99 185.942 1022.99 182.154C1022.99 178.366 1022.28 175.002 1020.84 172.063C1019.4 169.124 1017.13 166.821 1014.03 165.156C1010.96 163.49 1006.91 162.658 1001.88 162.658H982.875V250H967.738ZM1075.86 162.707V149.676H1153.5V162.707H1122.2V250H1107.11V162.707H1075.86ZM1195.49 250V149.676H1258.39V162.707H1210.62V193.274H1255.1V206.255H1210.62V236.97H1258.97V250H1195.49ZM1386.76 182.301H1371.48C1370.89 179.035 1369.8 176.161 1368.19 173.679C1366.59 171.198 1364.64 169.091 1362.32 167.36C1360 165.629 1357.4 164.323 1354.53 163.441C1351.69 162.56 1348.67 162.119 1345.47 162.119C1339.68 162.119 1334.51 163.572 1329.94 166.479C1325.4 169.385 1321.8 173.647 1319.16 179.264C1316.55 184.881 1315.24 191.739 1315.24 199.838C1315.24 208.002 1316.55 214.893 1319.16 220.51C1321.8 226.127 1325.41 230.373 1329.99 233.247C1334.56 236.121 1339.7 237.558 1345.42 237.558C1348.58 237.558 1351.59 237.133 1354.43 236.284C1357.3 235.402 1359.9 234.112 1362.22 232.414C1364.54 230.716 1366.5 228.642 1368.1 226.193C1369.73 223.711 1370.86 220.87 1371.48 217.669L1386.76 217.718C1385.94 222.649 1384.36 227.189 1382.01 231.336C1379.69 235.451 1376.7 239.011 1373.04 242.015C1369.42 244.987 1365.27 247.289 1360.6 248.922C1355.93 250.555 1350.84 251.372 1345.32 251.372C1336.63 251.372 1328.89 249.314 1322.1 245.199C1315.31 241.052 1309.95 235.125 1306.03 227.417C1302.15 219.71 1300.2 210.517 1300.2 199.838C1300.2 189.126 1302.16 179.933 1306.08 172.259C1310 164.552 1315.36 158.641 1322.15 154.526C1328.94 150.378 1336.66 148.305 1345.32 148.305C1350.64 148.305 1355.61 149.072 1360.21 150.607C1364.85 152.109 1369.01 154.33 1372.7 157.269C1376.39 160.176 1379.45 163.735 1381.86 167.948C1384.28 172.128 1385.91 176.913 1386.76 182.301ZM1429.7 250V149.676H1444.84V193.274H1494.86V149.676H1510.04V250H1494.86V206.255H1444.84V250H1429.7Z" fill="white"/>
<defs>
<linearGradient id="paint0_linear_dark" x1="286.116" y1="96" x2="286.116" y2="303.996" gradientUnits="userSpaceOnUse">
<stop stop-color="#FE3636"/>
<stop offset="1" stop-color="#5D5DF2"/>
</linearGradient>
</defs>
</svg>
